<?xml version="1.0" standalone="no"?><!DOCTYPE svg PUBLIC "-//W3C//DTD SVG 1.1//EN" "http://www.w3.org/Graphics/SVG/1.1/DTD/svg11.dtd"><svg width="100%" height="100%" viewBox="0 0 1200 500" version="1.1" xmlns="http://www.w3.org/2000/svg" xmlns:xlink="http://www.w3.org/1999/xlink" xml:space="preserve" style="fill-rule:evenodd;clip-rule:evenodd;stroke-linejoin:round;stroke-miterlimit:1.41421;"><g><g><circle cx="166.145" cy="246.384" r="64.652" style="fill:#fff;"/><circle cx="166.145" cy="246.384" r="55.382" style="fill:#3f83c4;"/><path d="M302.218,184.587c8.408,18.601 13.088,39.242 13.088,60.967c0,81.865 -66.465,148.33 -148.33,148.33c-3.809,0 -7.584,-0.144 -11.321,-0.427l-0.452,-0.107l60.353,-103.996l-0.363,-0.867c9.724,-11.315 15.604,-26.028 15.604,-42.103c0,-34.21 -26.629,-62.25 -60.271,-64.505l-0.062,-0.146l128.9,0l2.854,2.854Z" style="fill:#fcd209;"/><path d="M153.178,393.884c-20.313,-2.02 -40.528,-8.287 -59.343,-19.149c-70.898,-40.933 -95.225,-131.725 -54.292,-202.623c1.904,-3.298 3.916,-6.496 6.029,-9.591l0.319,-0.337l59.887,104.265l0.932,0.119c4.937,14.079 14.739,26.527 28.661,34.565c29.626,17.105 67.224,8.064 85.998,-19.944l0.158,0.02l-64.45,111.63l-3.899,1.045Z" style="fill:#4db849;"/><path d="M46.57,160.087c11.906,-16.582 27.441,-30.956 46.255,-41.818c70.898,-40.933 161.69,-16.605 202.623,54.293c1.904,3.298 3.667,6.639 5.291,10.017l0.133,0.445l-120.24,-0.269l-0.569,0.748c-14.662,-2.764 -30.343,-0.5 -44.264,7.538c-29.627,17.105 -40.596,54.186 -25.728,84.449l-0.096,0.126l-64.45,-111.63l1.045,-3.899Z" style="fill:#e6443c;"/></g><g><g><path d="M470.968,259.029l0,-13.361l73.747,-119.547c0.108,-5.365 -1.869,-8.733 -6.363,-9.692l-67.037,0c-6.377,2.23 -11.892,6.578 -16.393,13.422l-28.058,46.652l-4.028,29.601l18.342,38.537l29.79,14.388Z" style="fill:#d23e34;"/><path d="M426.864,176.503c0,0 0,7.567 0,9.68c0,0.355 0.098,0.703 0.282,1.007c6.292,10.349 115.799,190.461 115.799,190.461c3.32,5.302 2.057,8.576 -4.54,9.317l-66.826,0c-4.026,-0.86 -7.586,-2.335 -10.356,-4.852l-75.515,-122.513c-2.098,-4.655 -2.08,-9.311 -0.812,-13.966l41.968,-69.134Z" style="fill:#3b89ee;"/></g><g><path d="M1098.89,244.369l0,13.36l-73.747,119.548c-0.108,5.365 1.869,8.733 6.363,9.691l67.037,0c6.377,-2.229 11.892,-6.577 16.393,-13.421l28.058,-46.652l4.028,-29.601l-18.342,-38.537l-29.79,-14.388Z" style="fill:#f7c741;"/><path d="M1143,326.895c0,0 0,-7.567 0,-9.68c0,-0.355 -0.098,-0.704 -0.282,-1.007c-6.292,-10.349 -115.799,-190.461 -115.799,-190.461c-3.32,-5.303 -2.057,-8.576 4.54,-9.318l66.826,0c4.026,0.86 7.586,2.335 10.356,4.853l75.515,122.513c2.098,4.655 2.079,9.31 0.812,13.966l-41.968,69.134Z" style="fill:#0aa15a;"/></g><g><g transform="matrix(1.45931,0,0,1.45931,314.625,45.0623)"><text x="138.406px" y="166.538px" style="font-family:'OpenSans-Bold';font-size:85.333px;fill:#000;">De<tspan x="250.281px " y="166.538px ">v</tspan></text><text x="298.822px" y="166.538px" style="font-family:'OpenSans';font-size:85.333px;fill:#000;">T<tspan x="340.072px 391.614px " y="166.538px 166.538px ">oo</tspan>ls</text></g></g></g></g></svg>